<?xml version="1.0" encoding="UTF-8"?>
<svg id="Capa_2" data-name="Capa 2" xmlns="http://www.w3.org/2000/svg" viewBox="0 0 92.65 34.78">
  <defs>
    <style>
      .cls-1 {
        fill: #371d68;
      }

      .cls-2 {
        fill: #e46730;
      }
    </style>
  </defs>
  <g id="Capa_1-2" data-name="Capa 1">
    <g>
      <path class="cls-1" d="M60.29,30.19c-1.47.67-3.08,1.12-4.67,1.12l-10.25.04V8.3s-2.84-.02-2.84-.02v-4.25s12.73.02,12.73.02c1.67,0,3.27.52,4.74,1.14,2.31,1.23,3.6,3.39,3.57,5.89s-1.34,4.57-3.79,5.79c3.05,1.17,4.68,3.85,4.62,6.95-.06,2.78-1.46,5.19-4.11,6.39ZM55,14.99c2.06-.18,3.17-1.75,3.11-3.48s-1.38-3.11-3.31-3.15l-4.19-.09v6.83c1.4-.01,2.91.03,4.39-.1ZM55.17,26.98c2.38-.05,3.82-1.85,3.77-3.9s-1.45-3.69-3.7-3.86c-1.5-.11-3.02-.1-4.64-.1v7.95s4.57-.09,4.57-.09Z"/>
      <path class="cls-1" d="M92.35,20.77c-1.33,7.08-7.78,10.53-14.69,10.55l-7.39.02V8.3s-2.85-.02-2.85-.02v-4.24s10.66.03,10.66.03c2.58,0,5.04.63,7.34,1.68,5.91,2.69,8.1,8.84,6.94,15.03ZM86.72,14.56c-1.26-5.29-6.08-6.7-11.25-6.26v18.75c1.56,0,3.12.07,4.67-.18,5.85-.92,7.9-6.78,6.58-12.32Z"/>
      <path class="cls-1" d="M34.63,14.09c1.98,9.95-5.02,19.28-14.84,20.55S.77,28.65.04,18.47c-.11-1.47.03-2.85.37-4.37l17.1,6.97,17.13-6.99ZM18.97,28.42c1.45-1.24,1.61-2.98.5-4.17s-2.99-1.14-4.02.11-.75,2.97.65,4.07c-3.36-.56-5.71-3.04-6.4-6.24l-3.64-1.5c.15,6.49,5.46,11.24,11.56,11.18s11.3-4.95,11.35-11.28l-3.65,1.52c-.65,3.28-3.07,5.73-6.35,6.31Z"/>
      <path class="cls-2" d="M24.98,1.76l-5.93,8.99-1.37-10.76c2.5.23,4.73.61,7.3,1.76Z"/>
      <path class="cls-2" d="M16.13,9.38l-.44,1.02L10,1.75C12.47.69,14.8.28,17.31,0l-1.18,9.37Z"/>
      <path class="cls-2" d="M31.14,6.61l-9.12,5.28,3.32-9.95c2.19,1.16,4.02,2.54,5.8,4.67Z"/>
      <path class="cls-2" d="M12.82,11.72L3.9,6.66c1.46-1.97,3.52-3.55,5.78-4.67l3.14,9.73Z"/>
      <path class="cls-2" d="M10.5,14.17l-9.97-.53c.52-2.37,1.48-4.56,3.07-6.68l6.89,7.21Z"/>
      <path class="cls-2" d="M34.52,13.61l-10.03.62c2.38-2.67,4.55-4.88,6.88-7.23,1.6,2.01,2.45,3.94,3.15,6.61Z"/>
    </g>
  </g>
</svg>